<?xml version="1.0" encoding="UTF-8"?>
<svg id="Layer_1" xmlns="http://www.w3.org/2000/svg" version="1.1" viewBox="0 0 181.77 363.38">
  <!-- Generator: Adobe Illustrator 29.2.1, SVG Export Plug-In . SVG Version: 2.1.0 Build 116)  -->
  <defs>
    <style>
      .st0 {
        fill: #f37324;
      }
    </style>
  </defs>
  <path class="st0" d="M35.97,149.47c.86,0,1.7.04,2.55.1,1.45.09,2.88.26,4.28.51.7.12,1.4.24,2.1.34l118.29,15.73c5.36.72,10,2.92,13.31,6.04,3.3,3.12,5.27,7.14,5.27,11.49,0,8.84-8.13,16.35-19.09,17.59l-115.81,13.16c-1.19.14-2.38.29-3.55.52-2.38.46-4.83.72-7.35.72-10.3,0-19.58-4.1-26.14-10.57C3.74,199.09,0,191.04,0,182.31s3.73-16.63,9.8-22.51c6.56-6.35,15.85-10.32,26.18-10.32Z"/>
  <path class="st0" d="M98.45,11.22c.61.61,1.18,1.23,1.74,1.87.96,1.09,1.85,2.22,2.67,3.38.41.58.81,1.16,1.24,1.72l72.53,94.77c3.29,4.3,5.01,9.14,5.14,13.68.13,4.54-1.33,8.77-4.4,11.85-6.25,6.25-17.31,5.81-25.94-1.06L60.23,64.84c-.94-.75-1.89-1.48-2.88-2.14-2.01-1.35-3.93-2.91-5.71-4.69-7.29-7.29-10.95-16.74-11.01-25.95-.06-8.55,2.99-16.89,9.16-23.06C55.95,2.83,64.19-.13,72.64,0c9.13.15,18.51,3.91,25.81,11.21Z"/>
  <path class="st0" d="M50.09,305.56c.61-.61,1.23-1.18,1.87-1.74,1.09-.96,2.22-1.85,3.38-2.67.58-.41,1.16-.81,1.72-1.24l94.77-72.53c4.3-3.29,9.14-5.01,13.68-5.14,4.54-.13,8.77,1.33,11.85,4.4,6.25,6.25,5.81,17.31-1.06,25.94l-72.58,91.2c-.75.94-1.48,1.89-2.14,2.88-1.35,2.01-2.91,3.93-4.69,5.71-7.29,7.29-16.74,10.95-25.95,11.01-8.55.06-16.89-2.99-23.06-9.16s-9.13-14.4-8.99-22.85c.15-9.13,3.91-18.51,11.21-25.81Z"/>
</svg>