<?xml version="1.0" encoding="UTF-8"?>
<svg id="Layer_1" xmlns="http://www.w3.org/2000/svg" version="1.1" viewBox="0 0 181.77 363.38">
  <!-- Generator: Adobe Illustrator 29.2.1, SVG Export Plug-In . SVG Version: 2.1.0 Build 116)  -->
  <defs>
    <style>
      .st0 {
        fill: #f37324;
      }
    </style>
  </defs>
  <path class="st0" d="M145.8,149.48c10.33,0,19.62,3.97,26.18,10.32,6.07,5.88,9.8,13.78,9.8,22.51,0,8.73-3.74,16.78-9.83,22.79-6.56,6.47-15.84,10.57-26.14,10.57-2.52,0-4.97-.26-7.35-.72-1.17-.23-2.36-.38-3.55-.52l-115.81-13.16C8.14,200.03,0,192.52,0,183.68c0-4.35,1.97-8.37,5.27-11.49,3.31-3.12,7.95-5.32,13.31-6.04l118.29-15.73c.7-.1,1.4-.22,2.1-.34,1.4-.25,2.83-.42,4.28-.51.85-.06,1.69-.1,2.55-.1h0Z"/>
  <path class="st0" d="M83.33,11.21C90.63,3.91,100.01.15,109.14,0c8.45-.13,16.69,2.83,22.85,9,6.17,6.17,9.22,14.51,9.16,23.06-.06,9.21-3.72,18.66-11.01,25.95-1.78,1.78-3.7,3.34-5.71,4.69-.99.66-1.94,1.39-2.88,2.14L30.35,137.43c-8.63,6.87-19.69,7.31-25.94,1.06C1.34,135.41-.12,131.18,0,126.64c.13-4.54,1.85-9.38,5.14-13.68L77.68,18.19c.43-.56.83-1.14,1.24-1.72.82-1.16,1.71-2.29,2.67-3.38.56-.64,1.13-1.26,1.74-1.87h0Z"/>
  <path class="st0" d="M131.68,305.56c7.3,7.3,11.06,16.68,11.21,25.81.14,8.45-2.82,16.68-8.99,22.85s-14.51,9.22-23.06,9.16c-9.21-.06-18.66-3.72-25.95-11.01-1.78-1.78-3.34-3.7-4.69-5.71-.66-.99-1.39-1.94-2.14-2.88L5.48,252.58c-6.87-8.63-7.31-19.69-1.06-25.94,3.08-3.07,7.31-4.53,11.85-4.4,4.54.13,9.38,1.85,13.68,5.14l94.77,72.53c.56.43,1.14.83,1.72,1.24,1.16.82,2.29,1.71,3.38,2.67.64.56,1.26,1.13,1.87,1.74h-.01Z"/>
</svg>