<?xml version="1.0" encoding="UTF-8"?>
<svg id="Layer_1" xmlns="http://www.w3.org/2000/svg" version="1.1" viewBox="0 0 105.05 55.41">
  <!-- Generator: Adobe Illustrator 29.2.1, SVG Export Plug-In . SVG Version: 2.1.0 Build 116)  -->
  <defs>
    <style>
      .st0 {
        fill: #f37324;
        stroke: #f37324;
        stroke-linecap: round;
        stroke-miterlimit: 10;
        stroke-width: 5px;
      }
    </style>
  </defs>
  <path class="st0" d="M73.02,16.34h29.15v3.25h-29.15c-.74,0-1.34-.6-1.34-1.34v-.58c0-.74.6-1.34,1.34-1.34Z" transform="translate(38.16 -56.2) rotate(45)"/>
  <path class="st0" d="M73.04,35.58h29.15v3.25h-29.15c-.74,0-1.34-.6-1.34-1.34v-.58c0-.74.6-1.34,1.34-1.34Z" transform="translate(-.85 72.37) rotate(-45)"/>
  <path class="st0" d="M6.52,26.11h82.63v3.25H6.52c-.9,0-1.63-.73-1.63-1.63h0c0-.9.73-1.63,1.63-1.63Z"/>
</svg>