<?xml version="1.0" encoding="UTF-8"?>
<svg xmlns="http://www.w3.org/2000/svg" version="1.1" viewBox="0 0 380.61 421.73">
  <!-- Generator: Adobe Illustrator 29.2.1, SVG Export Plug-In . SVG Version: 2.1.0 Build 116)  -->
  <defs>
    <style>
      .st0 {
        fill: #62311a;
        stroke-width: 5px;
      }

      .st0, .st1, .st2, .st3, .st4, .st5, .st6, .st7 {
        stroke-miterlimit: 10;
      }

      .st0, .st1, .st2, .st3, .st4, .st6 {
        stroke: #5b3319;
      }

      .st0, .st6 {
        stroke-linecap: round;
      }

      .st1 {
        fill: #5b3319;
      }

      .st1, .st2, .st3, .st6 {
        stroke-width: 20px;
      }

      .st2 {
        fill: #f9d792;
      }

      .st3, .st4, .st5, .st6 {
        fill: none;
      }

      .st4 {
        stroke-width: 13px;
      }

      .st5, .st7 {
        stroke: #221f20;
      }

      .st8 {
        display: none;
      }

      .st7 {
        fill: #fff;
      }
    </style>
  </defs>
  <g id="Layer_1" class="st8">
    <g>
      <g>
        <path class="st1" d="M189.82,56.38v160.4h-113.79v-33.25c0-70.22,50.94-127.15,113.79-127.15Z"/>
        <path class="st3" d="M303.61,183.52v33.25h-113.79V56.38c62.85,0,113.79,56.92,113.79,127.15Z"/>
        <path class="st3" d="M76.03,216.78v97.14c0,49.99,43.1,90.52,96.27,90.52h35.05c53.17,0,96.27-40.53,96.27-90.52v-97.14H76.03Z"/>
        <path class="st2" d="M211.31,116.46v52.42c0,11.41-9.62,20.66-21.49,20.66s-21.49-9.24-21.49-20.66v-52.42c0-11.41,9.62-20.67,21.49-20.67s21.49,9.25,21.49,20.67Z"/>
      </g>
      <line class="st6" x1="27.33" y1="32.36" x2="65.9" y2="70.92"/>
      <line class="st6" x1="12.06" y1="77.97" x2="50.88" y2="92.09"/>
      <line class="st6" x1="86.46" y1="54.48" x2="72.34" y2="15.67"/>
    </g>
  </g>
  <g id="Layer_3" class="st8">
    <g>
      <path class="st1" d="M189.82,56.38v160.4s113.79,0,113.79,0v-33.25c0-70.22-50.94-127.15-113.79-127.15Z"/>
      <path class="st3" d="M76.03,183.52v33.25s113.79,0,113.79,0V56.38c-62.85,0-113.79,56.92-113.79,127.15Z"/>
      <path class="st3" d="M303.61,216.78v97.14c0,49.99-43.1,90.52-96.27,90.52h-35.05c-53.17,0-96.27-40.53-96.27-90.52v-97.14h113.79s113.79,0,113.79,0Z"/>
      <path class="st2" d="M168.33,116.46v52.42c0,11.41,9.62,20.66,21.49,20.66s21.49-9.24,21.49-20.66v-52.42c0-11.41-9.62-20.67-21.49-20.67s-21.49,9.25-21.49,20.67Z"/>
      <line class="st6" x1="352.3" y1="32.36" x2="313.73" y2="70.92"/>
      <line class="st6" x1="367.57" y1="77.97" x2="328.76" y2="92.09"/>
      <line class="st6" x1="293.17" y1="54.48" x2="307.3" y2="15.67"/>
    </g>
  </g>
  <g id="Layer_4">
    <rect class="st4" x="142.78" y="197.71" width="96" height="83.2" rx="18.46" ry="18.46"/>
    <rect class="st4" x="142.78" y="91.84" width="96" height="83.2" rx="18.46" ry="18.46"/>
    <rect class="st4" x="262.61" y="197.71" width="96" height="83.2" rx="18.46" ry="18.46"/>
    <rect class="st4" x="22.95" y="197.71" width="96" height="83.2" rx="18.46" ry="18.46"/>
    <g>
      <g>
        <path class="st0" d="M167.25,123.65h29.15v3.25h-29.15c-.74,0-1.34-.6-1.34-1.34v-.58c0-.74.6-1.34,1.34-1.34Z" transform="translate(-35.53 164.79) rotate(-45)"/>
        <path class="st0" d="M186.5,123.64h29.15v3.25h-29.15c-.74,0-1.34-.6-1.34-1.34v-.58c0-.74.6-1.34,1.34-1.34Z" transform="translate(253.53 355.54) rotate(-135)"/>
      </g>
      <path class="st0" d="M177.02,136.67h29.15v3.25h-29.15c-.74,0-1.34-.6-1.34-1.34v-.58c0-.74.6-1.34,1.34-1.34Z" transform="translate(52.63 329.22) rotate(-90)"/>
    </g>
    <g>
      <g>
        <path class="st0" d="M186.5,245.84h29.15v3.25h-29.15c-.74,0-1.34-.6-1.34-1.34v-.58c0-.74.6-1.34,1.34-1.34Z" transform="translate(517.09 280.74) rotate(135)"/>
        <path class="st0" d="M167.25,245.85h29.15v3.25h-29.15c-.74,0-1.34-.6-1.34-1.34v-.58c0-.74.6-1.34,1.34-1.34Z" transform="translate(228.05 -55.61) rotate(45)"/>
      </g>
      <path class="st0" d="M176.73,232.82h29.15v3.25h-29.15c-.74,0-1.34-.6-1.34-1.34v-.58c0-.74.6-1.34,1.34-1.34Z" transform="translate(425.08 43.81) rotate(90)"/>
    </g>
    <g>
      <g>
        <path class="st0" d="M304.86,228.06h29.15v3.25h-29.15c-.74,0-1.34-.6-1.34-1.34v-.58c0-.74.6-1.34,1.34-1.34Z" transform="translate(255.78 -158.13) rotate(45)"/>
        <path class="st0" d="M304.88,247.3h29.15v3.25h-29.15c-.74,0-1.34-.6-1.34-1.34v-.58c0-.74.6-1.34,1.34-1.34Z" transform="translate(-82.65 298.32) rotate(-45)"/>
      </g>
      <path class="st0" d="M291.85,237.82h29.15v3.25h-29.15c-.74,0-1.34-.6-1.34-1.34v-.58c0-.74.6-1.34,1.34-1.34Z"/>
    </g>
    <g>
      <g>
        <path class="st0" d="M48.89,247.3h29.15v3.25h-29.15c-.74,0-1.34-.6-1.34-1.34v-.58c0-.74.6-1.34,1.34-1.34Z" transform="translate(-68.83 469.34) rotate(-135)"/>
        <path class="st0" d="M48.87,228.06h29.15v3.25h-29.15c-.74,0-1.34-.6-1.34-1.34v-.58c0-.74.6-1.34,1.34-1.34Z" transform="translate(269.58 347.71) rotate(135)"/>
      </g>
      <path class="st0" d="M61.9,237.53h29.15v3.25h-29.15c-.74,0-1.34-.6-1.34-1.34v-.58c0-.74.6-1.34,1.34-1.34Z" transform="translate(151.61 478.32) rotate(180)"/>
    </g>
  </g>
  <g id="Layer_2" class="st8">
    <path class="st7" d="M192.23,33.71h0c71.75,0,130,58.25,130,130v152.02c0,60.7-49.28,109.98-109.98,109.98h-40.04c-60.7,0-109.98-49.28-109.98-109.98v-152.02c0-71.75,58.25-130,130-130Z"/>
    <line class="st5" x1="62.23" y1="197.71" x2="322.23" y2="197.71"/>
    <line class="st5" x1="192.23" y1="33.71" x2="192.23" y2="197.71"/>
    <rect class="st7" x="174.99" y="103.42" width="34.48" height="78.2" rx="17.24" ry="17.24"/>
  </g>
</svg>