<?xml version="1.0" encoding="UTF-8"?>
<svg id="Layer_1" xmlns="http://www.w3.org/2000/svg" version="1.1" viewBox="0 0 380.61 421.73">
  <!-- Generator: Adobe Illustrator 29.2.1, SVG Export Plug-In . SVG Version: 2.1.0 Build 116)  -->
  <defs>
    <style>
      .st0, .st1 {
        fill: #f9d792;
      }

      .st0, .st1, .st2, .st3, .st4, .st5, .st6, .st7, .st8, .st9 {
        stroke-miterlimit: 10;
      }

      .st0, .st1, .st3, .st4, .st5, .st6, .st7, .st8 {
        stroke: #5b3319;
      }

      .st0, .st3, .st5, .st8 {
        stroke-width: 23px;
      }

      .st1, .st4, .st6, .st7 {
        stroke-width: 20px;
      }

      .st2 {
        fill: #fff;
      }

      .st2, .st9 {
        stroke: #221f20;
      }

      .st3, .st4 {
        fill: #5b3319;
      }

      .st5, .st6 {
        stroke-linecap: round;
      }

      .st5, .st6, .st7, .st8, .st9 {
        fill: none;
      }

      .st10 {
        display: none;
      }
    </style>
  </defs>
  <g id="Layer_11" data-name="Layer_1" class="st10">
    <g>
      <g>
        <path class="st4" d="M189.82,56.38v160.4h-113.79v-33.25c0-70.22,50.94-127.15,113.79-127.15Z"/>
        <path class="st7" d="M303.61,183.52v33.25h-113.79V56.38c62.85,0,113.79,56.92,113.79,127.15h0Z"/>
        <path class="st7" d="M76.03,216.78v97.14c0,49.99,43.1,90.52,96.27,90.52h35.05c53.17,0,96.27-40.53,96.27-90.52v-97.14H76.03Z"/>
        <path class="st1" d="M211.31,116.46v52.42c0,11.41-9.62,20.66-21.49,20.66s-21.49-9.24-21.49-20.66v-52.42c0-11.41,9.62-20.67,21.49-20.67s21.49,9.25,21.49,20.67Z"/>
      </g>
      <line class="st6" x1="27.33" y1="32.36" x2="65.9" y2="70.92"/>
      <line class="st6" x1="12.06" y1="77.97" x2="50.88" y2="92.09"/>
      <line class="st6" x1="86.46" y1="54.48" x2="72.34" y2="15.67"/>
    </g>
  </g>
  <g id="Layer_3">
    <g>
      <path class="st3" d="M189.82,56.38v160.4h113.79v-33.25c0-70.22-50.94-127.15-113.79-127.15Z"/>
      <path class="st8" d="M76.03,183.52v33.25h113.79V56.38c-62.85,0-113.79,56.92-113.79,127.15h0Z"/>
      <path class="st8" d="M303.61,216.78v97.14c0,49.99-43.1,90.52-96.27,90.52h-35.05c-53.17,0-96.27-40.53-96.27-90.52v-97.14h227.59Z"/>
      <path class="st0" d="M168.33,116.46v52.42c0,11.41,9.62,20.66,21.49,20.66s21.49-9.24,21.49-20.66v-52.42c0-11.41-9.62-20.67-21.49-20.67s-21.49,9.25-21.49,20.67Z"/>
      <line class="st5" x1="352.3" y1="32.36" x2="313.73" y2="70.92"/>
      <line class="st5" x1="367.57" y1="77.97" x2="328.76" y2="92.09"/>
      <line class="st5" x1="293.17" y1="54.48" x2="307.3" y2="15.67"/>
    </g>
  </g>
  <g id="Layer_2" class="st10">
    <path class="st2" d="M192.23,33.71h0c71.75,0,130,58.25,130,130v152.02c0,60.7-49.28,109.98-109.98,109.98h-40.04c-60.7,0-109.98-49.28-109.98-109.98v-152.02c0-71.75,58.25-130,130-130h0Z"/>
    <line class="st9" x1="62.23" y1="197.71" x2="322.23" y2="197.71"/>
    <line class="st9" x1="192.23" y1="33.71" x2="192.23" y2="197.71"/>
    <path class="st2" d="M192.23,103.42h0c9.52,0,17.24,7.72,17.24,17.24v43.72c0,9.52-7.72,17.24-17.24,17.24h0c-9.52,0-17.24-7.72-17.24-17.24v-43.72c0-9.52,7.72-17.24,17.24-17.24Z"/>
  </g>
</svg>